<?xml version="1.0" encoding="utf-8"?>
<!-- Generator: Adobe Illustrator 24.0.3, SVG Export Plug-In . SVG Version: 6.00 Build 0)  -->
<svg version="1.1" id="Capa_1" xmlns="http://www.w3.org/2000/svg" xmlns:xlink="http://www.w3.org/1999/xlink" x="0px" y="0px"
	 viewBox="0 0 270.6 65.1" style="enable-background:new 0 0 270.6 65.1;" xml:space="preserve">
<style type="text/css">
	.st0{fill:url(#SVGID_1_);}
	.st1{fill:#FD0000;}
	.st2{fill:#808083;}
</style>
<title>rapricredit_logo_color</title>
<g>
	
		<linearGradient id="SVGID_1_" gradientUnits="userSpaceOnUse" x1="38.3491" y1="268.2309" x2="55.2891" y2="286.5509" gradientTransform="matrix(1 0 0 1 -11.84 -243.89)">
		<stop  offset="0" style="stop-color:#C60019"/>
		<stop  offset="1" style="stop-color:#FD0000"/>
	</linearGradient>
	<polygon class="st0" points="43.3,12 33.9,21.4 33.9,31.8 23.5,31.8 14,41.2 43.3,41.2 	"/>
	<polygon class="st1" points="24.9,12 14,22.9 14,41.2 23.5,31.8 23.5,21.4 33.9,21.4 43.3,12 	"/>
	<polygon class="st1" points="14,12 21,12 14,19.1 	"/>
	<path class="st1" d="M66.3,31.2h-2.1v10H57V12.1h14.8c6.3,0,10.5,3.8,10.5,9.5c0,4.8-3,8.2-7.7,9.3l9.1,10.4H75L66.3,31.2z
		 M75.2,21.7c0-2.1-1.7-3.5-4.2-3.5h-6.8v7H71C73.5,25.2,75.2,23.8,75.2,21.7z"/>
	<path class="st1" d="M103.8,27.7v13.5h-6.5v-1.6c-1.8,1.5-4.1,2.3-6.4,2.2c-4.8,0-7.9-2.8-7.9-7s3.2-6.9,8.9-6.9h5.4v-0.4
		c0.1-1.6-1.1-2.9-2.7-3c-0.1,0-0.2,0-0.3,0c-2,0-3.2,0.8-3.6,2.7L84.3,26c0.9-4.1,4.7-6.7,9.8-6.7
		C100.1,19.3,103.8,22.3,103.8,27.7z M97.3,32.8v-0.5h-4.7c-1.7,0-2.8,0.9-2.8,2.2s1.2,2.2,3,2.2C95.2,36.9,97.2,35.2,97.3,32.8
		C97.3,32.9,97.3,32.8,97.3,32.8L97.3,32.8z"/>
	<path class="st1" d="M130.9,30.6c0,6.8-4.8,11.3-10.4,11.3c-2.4,0.1-4.8-0.7-6.6-2.3v11.9H107V19.9h6.8v1.7
		c1.8-1.6,4.2-2.4,6.6-2.3C126.2,19.3,130.9,23.9,130.9,30.6z M124.2,30.6c0-3.3-2.2-5.5-5.1-5.5c-2.9,0-5.3,2.5-5.2,5.4
		c0,0,0,0.1,0,0.1c-0.1,2.9,2.2,5.4,5.1,5.5c0,0,0.1,0,0.1,0C122,36.1,124.2,33.9,124.2,30.6L124.2,30.6z"/>
	<path class="st1" d="M158.8,41.9c-8.2,0-14.9-6.7-14.9-14.9s6.7-14.9,14.9-14.9c0,0,0,0,0,0c7,0,13,4.2,14.3,10.9l-6.9,1.6
		c-0.5-3.6-3.8-6.3-7.4-6.1c-4.5,0-8.1,3.7-8.1,8.2c0,0.1,0,0.2,0,0.2c-0.2,4.5,3.4,8.3,7.9,8.5c0.1,0,0.2,0,0.2,0
		c3.6,0,6.5-2,7.5-6.3l6.9,1.4C171.9,37.7,166.2,41.9,158.8,41.9z"/>
	<path class="st1" d="M191.8,19.8l-0.3,6.8h-1.2c-4.8,0-7.4,2.5-7.4,8v6.7h-6.8V19.9h6.8V24c1.4-2.7,4.3-4.4,7.4-4.4
		C190.7,19.6,191.3,19.7,191.8,19.8z"/>
	<path class="st1" d="M198.7,32.3c0.6,2.5,2.3,4.1,4.6,4.1c1.9,0.2,3.7-0.8,4.6-2.5l6,1.2c-1.8,4.5-5.7,6.7-10.6,6.7
		c-6.1,0.1-11.1-4.7-11.3-10.7c0-0.2,0-0.4,0-0.6c-0.2-6.1,4.6-11.1,10.7-11.3c0.2,0,0.4,0,0.6,0c6,0,10.9,4.3,11,11.3v1.7
		L198.7,32.3z M198.9,28.2h8.8c-0.4-2-2.2-3.4-4.3-3.4C201.3,24.8,199.4,26.2,198.9,28.2z"/>
	<path class="st1" d="M232.5,41.2v-1.7c-1.8,1.6-4.2,2.4-6.6,2.3c-5.6,0-10.4-4.5-10.4-11.3s4.8-11.3,10.4-11.3
		c2.4-0.1,4.8,0.8,6.6,2.3V12h6.8v29.2H232.5z M232.5,30.6c0.1-2.9-2.2-5.4-5.2-5.5c0,0,0,0-0.1,0c-3,0-5.1,2.3-5.1,5.5
		c0,3.3,2.2,5.5,5.1,5.5c2.9,0,5.3-2.5,5.2-5.4C232.5,30.7,232.5,30.6,232.5,30.6L232.5,30.6z"/>
	<path class="st1" d="M244,18.8h6.8v22.4H244V18.8z"/>
	<path class="st1" d="M256.5,41.2V12h6.8v7.9h6.3v5.4h-6.3v15.9H256.5z"/>
	<polygon class="st1" points="133.8,12 140.6,12 133.8,18.8 	"/>
	<polygon class="st1" points="244,12 250.8,12 244,18.8 	"/>
	<path class="st1" d="M133.8,18.8h6.8v22.4h-6.8V18.8z"/>
	<path class="st2" d="M59.4,63c-1.3,0-2.4-1.1-2.4-2.4s1.1-2.4,2.4-2.4l0,0c1.1-0.1,2.1,0.7,2.3,1.8l-1.1,0.3c-0.1-0.6-0.6-1-1.2-1
		c-0.7,0.1-1.3,0.7-1.3,1.5c0,0.7,0.6,1.3,1.3,1.3c0.6,0,1.1-0.4,1.2-1l1.1,0.2C61.6,62.3,60.6,63.1,59.4,63z"/>
	<path class="st2" d="M67.4,61.3h-0.3v1.6h-1.1v-4.7h2.4c0.8-0.1,1.6,0.5,1.7,1.3c0,0.1,0,0.1,0,0.2c0,0.7-0.5,1.4-1.2,1.5l1.4,1.7
		h-1.4L67.4,61.3z M68.8,59.8c0-0.3-0.3-0.6-0.7-0.6h-1.1v1.1h1.1C68.6,60.4,68.8,60.1,68.8,59.8z"/>
	<path class="st2" d="M74.2,62.9v-4.7h3.6v1h-2.5v0.9h2.3V61h-2.3v0.9h2.5v1L74.2,62.9z"/>
	<path class="st2" d="M86.3,60.6c0,1.3-1,2.3-2.3,2.3c-0.1,0-0.2,0-0.3,0h-1.8v-4.7h1.8c1.3-0.1,2.4,0.8,2.5,2.1
		C86.3,60.4,86.3,60.5,86.3,60.6z M85.1,60.6c0-0.7-0.5-1.3-1.2-1.3c-0.1,0-0.1,0-0.2,0h-0.7v2.7h0.7c0.7,0.1,1.3-0.4,1.4-1.1
		C85.2,60.7,85.2,60.6,85.1,60.6L85.1,60.6z"/>
	<path class="st2" d="M93,61.9v1h-2.9v-1H91v-2.7h-0.9v-1H93v1h-0.8v2.7H93z"/>
	<path class="st2" d="M99.4,62.9h-1.1v-3.7h-1.5v-1h4.1v1h-1.5L99.4,62.9z"/>
	<path class="st2" d="M109.5,60.6c0,1.4-1.1,2.5-2.5,2.5c-1.4,0-2.5-1.1-2.5-2.5c0-1.4,1.1-2.5,2.4-2.5l0,0c1.3,0,2.4,1,2.5,2.4
		c0,0,0,0,0,0L109.5,60.6z M108.4,60.6c0-0.7-0.6-1.3-1.4-1.3c-0.7,0-1.3,0.6-1.3,1.4c0,0.7,0.6,1.3,1.3,1.3
		C107.8,62,108.4,61.4,108.4,60.6C108.4,60.6,108.4,60.6,108.4,60.6L108.4,60.6z"/>
	<path class="st2" d="M121,63c-1.3,0-2.4-1.1-2.4-2.4s1.1-2.4,2.4-2.4l0,0c1.1-0.1,2.1,0.7,2.3,1.8l-1.1,0.3c-0.1-0.6-0.6-1-1.2-1
		c-0.8,0-1.3,0.7-1.3,1.4c0,0,0,0,0,0c0,0.7,0.6,1.3,1.3,1.3c0.6,0,1.1-0.4,1.2-1l1.1,0.2C123.2,62.3,122.2,63.1,121,63z"/>
	<path class="st2" d="M129.6,63c-1.1,0.1-2-0.8-2.1-1.9c0-0.1,0-0.2,0-0.3v-2.6h1.2v2.6c0,0.7,0.4,1.2,1,1.2s0.9-0.4,0.9-1.2v-2.6
		h1.1v2.6c0.1,1.1-0.7,2.1-1.8,2.2C129.8,63,129.7,63,129.6,63z"/>
	<path class="st2" d="M138.8,62.1h-2l-0.3,0.8h-1.2l1.9-4.7h1.2l2,4.7h-1.2L138.8,62.1z M137.3,61.1h1.2l-0.6-1.5L137.3,61.1z"/>
	<path class="st2" d="M147.8,62.9l-2.4-2.7v2.7h-1.1v-4.7h0.9l2.4,2.8v-2.8h1.1v4.7H147.8z"/>
	<path class="st2" d="M157.4,60.6c0,1.3-1,2.3-2.3,2.3c-0.1,0-0.2,0-0.3,0H153v-4.7h1.9c1.3-0.1,2.4,0.8,2.5,2.1
		C157.4,60.4,157.4,60.5,157.4,60.6z M156.2,60.6c0-0.7-0.5-1.3-1.3-1.3c-0.1,0-0.1,0-0.2,0h-0.6v2.7h0.6c0.7,0.1,1.3-0.5,1.4-1.2
		C156.2,60.7,156.2,60.6,156.2,60.6L156.2,60.6z"/>
	<path class="st2" d="M166.3,60.6c0,1.4-1.1,2.5-2.5,2.5c-1.4,0-2.5-1.1-2.5-2.5c0-1.3,1.1-2.5,2.4-2.5h0.1c1.3,0,2.5,1,2.5,2.4
		C166.3,60.5,166.3,60.5,166.3,60.6L166.3,60.6z M165.1,60.6c0-0.7-0.6-1.3-1.4-1.3c-0.7,0-1.3,0.6-1.3,1.4c0,0.7,0.6,1.3,1.3,1.3
		C164.6,62,165.2,61.4,165.1,60.6C165.2,60.6,165.2,60.6,165.1,60.6L165.1,60.6z"/>
	<path class="st2" d="M175.5,62.9v-4.7h1.1v3.7h2.3v1L175.5,62.9z"/>
	<path class="st2" d="M187.7,60.6c0,1.4-1.1,2.5-2.5,2.5s-2.5-1.1-2.5-2.5c0-1.4,1.1-2.5,2.4-2.5h0.1c1.3,0,2.4,1,2.5,2.3
		c0,0,0,0,0,0C187.7,60.5,187.7,60.6,187.7,60.6z M186.6,60.6c0-0.7-0.6-1.3-1.4-1.3c-0.7,0-1.3,0.6-1.3,1.4c0,0.7,0.6,1.3,1.3,1.3
		C186,61.9,186.6,61.3,186.6,60.6C186.6,60.6,186.6,60.6,186.6,60.6z"/>
	<path class="st2" d="M200.4,62.9l-2.4-2.7v2.7h-1.1v-4.7h0.9l2.3,2.8v-2.8h1.1v4.7H200.4z"/>
	<path class="st2" d="M205.6,62.9v-4.7h3.6v1h-2.5v0.9h2.3V61h-2.3v0.9h2.5v1L205.6,62.9z"/>
	<path class="st2" d="M215.7,63c-1.3,0-2.4-1.1-2.4-2.4s1.1-2.4,2.4-2.4l0,0c1.1-0.1,2.1,0.7,2.3,1.8l-1.1,0.3c-0.1-0.6-0.6-1-1.2-1
		c-0.8,0-1.3,0.7-1.3,1.4c0,0,0,0,0,0c0,0.7,0.6,1.3,1.3,1.3c0.6,0,1.1-0.4,1.2-1l1.1,0.2C217.8,62.3,216.8,63.1,215.7,63z"/>
	<path class="st2" d="M222.2,62.9v-4.7h3.6v1h-2.4v0.9h2.2V61h-2.2v0.9h2.5v1L222.2,62.9z"/>
	<path class="st2" d="M233.7,59.5l-1.1,0.2c-0.1-0.4-0.4-0.7-0.8-0.7c-0.4,0-0.6,0.2-0.6,0.5s0.1,0.3,0.4,0.4l1,0.2
		c0.8,0.2,1.3,0.6,1.3,1.3c0,1-0.9,1.5-1.9,1.5c-0.9,0.1-1.8-0.5-2-1.4l1.2-0.2c0.1,0.4,0.5,0.7,0.9,0.7c0.4,0,0.7-0.2,0.7-0.5
		s-0.1-0.3-0.4-0.4l-1-0.2c-0.7-0.2-1.2-0.5-1.2-1.3s0.8-1.5,1.8-1.5C232.7,58.1,233.5,58.7,233.7,59.5z"/>
	<path class="st2" d="M240.6,61.9v1h-2.9v-1h0.9v-2.7h-0.9v-1h2.9v1h-0.9v2.7H240.6z"/>
	<path class="st2" d="M246.9,62.9h-1.1v-3.7h-1.5v-1h4.1v1H247L246.9,62.9z"/>
	<path class="st2" d="M255.1,62.1h-2l-0.3,0.8h-1.2l1.9-4.7h1.2l1.9,4.7h-1.2L255.1,62.1z M253.5,61.1h1.2l-0.6-1.5L253.5,61.1z"/>
	<path class="st2" d="M264.2,59.5l-1.1,0.2c-0.1-0.4-0.4-0.7-0.8-0.7c-0.4,0-0.6,0.2-0.6,0.5s0.1,0.3,0.4,0.4l1,0.2
		c0.8,0.2,1.3,0.6,1.3,1.3c0,1-0.9,1.5-1.9,1.5c-0.9,0.1-1.8-0.5-2-1.4l1.2-0.2c0.1,0.4,0.5,0.7,0.9,0.7c0.4,0,0.7-0.2,0.7-0.5
		s-0.1-0.3-0.4-0.4l-1-0.2c-0.7-0.2-1.2-0.5-1.2-1.3s0.7-1.5,1.8-1.5C263.1,58,264,58.6,264.2,59.5z"/>
	<path class="st2" d="M75.6,56.6h0.9l0,0l-0.2,0.9h-0.8L75.6,56.6z"/>
</g>
</svg>